HIERARCHY
ROOT ding_shaowen:Solving:Hips
{
	OFFSET 0.000000 0.000000 0.000000
	CHANNELS 6 Xposition Yposition Zposition Xrotation Yrotation Zrotation
	JOINT ding_shaowen:Solving:Spine
	{
		OFFSET 0.000000 -12.793800 2.116599
		CHANNELS 6 Xposition Yposition Zposition Xrotation Yrotation Zrotation
		JOINT ding_shaowen:Solving:Spine1
		{
			OFFSET 0.000000 -8.721180 1.537782
			CHANNELS 6 Xposition Yposition Zposition Xrotation Yrotation Zrotation
			JOINT ding_shaowen:Solving:Spine2
			{
				OFFSET 0.000000 -8.822016 0.771827
				CHANNELS 6 Xposition Yposition Zposition Xrotation Yrotation Zrotation
				JOINT ding_shaowen:Solving:Spine3
				{
					OFFSET 0.000000 -8.855719 0.000000
					CHANNELS 6 Xposition Yposition Zposition Xrotation Yrotation Zrotation
					JOINT ding_shaowen:Solving:Neck
					{
						OFFSET 0.000000 -11.385921 -1.138590
						CHANNELS 6 Xposition Yposition Zposition Xrotation Yrotation Zrotation
						JOINT ding_shaowen:Solving:Neck1
						{
							OFFSET 0.000000 -6.705494 -0.586653
							CHANNELS 6 Xposition Yposition Zposition Xrotation Yrotation Zrotation
							JOINT ding_shaowen:Solving:Head
							{
								OFFSET 0.000000 -6.628845 -1.168845
								CHANNELS 6 Xposition Yposition Zposition Xrotation Yrotation Zrotation
								JOINT ding_shaowen:Solving:HeadEnd
								{
									OFFSET 0.000000 -9.728077 0.000002
									CHANNELS 6 Xposition Yposition Zposition Xrotation Yrotation Zrotation
									End Site
									{
										OFFSET 0.000000 -9.728081 0.000002
									}
								}
							}
						}
					}
					JOINT ding_shaowen:Solving:RightShoulder
					{
						OFFSET 0.000000 -8.132801 -5.345683
						CHANNELS 6 Xposition Yposition Zposition Xrotation Yrotation Zrotation
						JOINT ding_shaowen:Solving:RightArm
						{
							OFFSET -20.692947 -0.000008 0.000000
							CHANNELS 6 Xposition Yposition Zposition Xrotation Yrotation Zrotation
							JOINT ding_shaowen:Solving:RightForeArm
							{
								OFFSET -30.243591 -0.000008 0.000000
								CHANNELS 6 Xposition Yposition Zposition Xrotation Yrotation Zrotation
								JOINT ding_shaowen:Solving:RightHand
								{
									OFFSET -24.757149 -0.000008 0.000000
									CHANNELS 6 Xposition Yposition Zposition Xrotation Yrotation Zrotation
									JOINT ding_shaowen:Solving:RightHandThumb1
									{
										OFFSET -3.599983 2.820858 -2.676913
										CHANNELS 6 Xposition Yposition Zposition Xrotation Yrotation Zrotation
										End Site
										{
											OFFSET -5.243469 0.000000 -5.291954
										}
									}
									JOINT ding_shaowen:Solving:RightHandMiddle1
									{
										OFFSET -9.599960 -0.000004 0.061538
										CHANNELS 6 Xposition Yposition Zposition Xrotation Yrotation Zrotation
										End Site
										{
											OFFSET -7.449745 -0.000004 0.000000
										}
									}
								}
							}
						}
					}
					JOINT ding_shaowen:Solving:LeftShoulder
					{
						OFFSET 0.000000 -8.132801 -5.345683
						CHANNELS 6 Xposition Yposition Zposition Xrotation Yrotation Zrotation
						JOINT ding_shaowen:Solving:LeftArm
						{
							OFFSET 20.692947 -0.000008 0.000000
							CHANNELS 6 Xposition Yposition Zposition Xrotation Yrotation Zrotation
							JOINT ding_shaowen:Solving:LeftForeArm
							{
								OFFSET 30.243591 -0.000008 0.000000
								CHANNELS 6 Xposition Yposition Zposition Xrotation Yrotation Zrotation
								JOINT ding_shaowen:Solving:LeftHand
								{
									OFFSET 24.757149 -0.000008 0.000000
									CHANNELS 6 Xposition Yposition Zposition Xrotation Yrotation Zrotation
									JOINT ding_shaowen:Solving:LeftHandThumb1
									{
										OFFSET 3.599983 2.820858 -2.676913
										CHANNELS 6 Xposition Yposition Zposition Xrotation Yrotation Zrotation
										End Site
										{
											OFFSET 5.243469 0.000000 -5.291954
										}
									}
									JOINT ding_shaowen:Solving:LeftHandMiddle1
									{
										OFFSET 9.599960 -0.000004 0.061538
										CHANNELS 6 Xposition Yposition Zposition Xrotation Yrotation Zrotation
										End Site
										{
											OFFSET 7.449745 -0.000004 0.000000
										}
									}
								}
							}
						}
					}
				}
			}
		}
	}
	JOINT ding_shaowen:Solving:RightUpLeg
	{
		OFFSET -11.038935 0.000000 0.000000
		CHANNELS 6 Xposition Yposition Zposition Xrotation Yrotation Zrotation
		JOINT ding_shaowen:Solving:RightLeg
		{
			OFFSET 0.000000 45.093018 -0.000006
			CHANNELS 6 Xposition Yposition Zposition Xrotation Yrotation Zrotation
			JOINT ding_shaowen:Solving:RightFoot
			{
				OFFSET 0.000000 38.174210 -0.000006
				CHANNELS 6 Xposition Yposition Zposition Xrotation Yrotation Zrotation
				JOINT ding_shaowen:Solving:RightForeFoot
				{
					OFFSET 0.000000 3.459915 -0.000000
					CHANNELS 6 Xposition Yposition Zposition Xrotation Yrotation Zrotation
					JOINT ding_shaowen:Solving:RightToeBase
					{
						OFFSET 0.000000 0.000000 -13.550137
						CHANNELS 6 Xposition Yposition Zposition Xrotation Yrotation Zrotation
						JOINT ding_shaowen:Solving:RightToeBaseEnd
						{
							OFFSET 0.000000 0.000000 -3.436555
							CHANNELS 6 Xposition Yposition Zposition Xrotation Yrotation Zrotation
							End Site
							{
								OFFSET 0.000000 -3.436554 0.000000
							}
						}
					}
				}
			}
		}
	}
	JOINT ding_shaowen:Solving:LeftUpLeg
	{
		OFFSET 11.038935 0.000000 0.000000
		CHANNELS 6 Xposition Yposition Zposition Xrotation Yrotation Zrotation
		JOINT ding_shaowen:Solving:LeftLeg
		{
			OFFSET 0.000000 45.093018 -0.000006
			CHANNELS 6 Xposition Yposition Zposition Xrotation Yrotation Zrotation
			JOINT ding_shaowen:Solving:LeftFoot
			{
				OFFSET 0.000000 38.174210 -0.000006
				CHANNELS 6 Xposition Yposition Zposition Xrotation Yrotation Zrotation
				JOINT ding_shaowen:Solving:LeftForeFoot
				{
					OFFSET 0.000000 3.459915 -0.000000
					CHANNELS 6 Xposition Yposition Zposition Xrotation Yrotation Zrotation
					JOINT ding_shaowen:Solving:LeftToeBase
					{
						OFFSET 0.000000 0.000000 -13.550137
						CHANNELS 6 Xposition Yposition Zposition Xrotation Yrotation Zrotation
						JOINT ding_shaowen:Solving:LeftToeBaseEnd
						{
							OFFSET 0.000000 0.000000 -4.223781
							CHANNELS 6 Xposition Yposition Zposition Xrotation Yrotation Zrotation
							End Site
							{
								OFFSET 0.000000 -4.223778 0.000000
							}
						}
					}
				}
			}
		}
	}
}
MOTION
Frames: 4
Frame Time: 0.041667
5.180712 -89.556854 -94.536835 87.424406 -9.317759 0.869438 -0.000002 -12.793789 2.116595 13.284787 -0.367741 -1.257530 0.000002 -8.721167 1.537764 -1.593260 -0.003258 -0.289055 -0.000002 -8.822018 0.771824 -5.635702 -0.279829 0.188053 -0.000001 -8.855710 0.000015 -1.710700 0.239934 0.118405 -0.000002 -11.385932 -1.138610 3.952735 1.156211 -1.337683 0.000003 -6.705462 -0.586657 -0.724168 3.775044 0.342198 -0.000001 -6.628864 -1.168826 4.568039 0.296978 -0.100277 -0.000000 -9.728077 -0.000001 -0.000000 0.000001 0.000000 -0.000003 -8.132793 -5.345705 0.000008 20.264731 5.066490 -20.692947 -0.000014 0.000005 0.040871 -25.008331 -90.521884 -30.243589 -0.000014 -0.000008 9.433182 -16.174923 2.649994 -24.757179 0.000005 -0.000014 -2.627570 10.907259 13.633011 -3.600015 2.820842 -2.676933 0.000003 0.000003 -0.000001 -9.599957 -0.000012 0.061524 0.000005 -0.000001 0.000005 -0.000002 -8.132793 -5.345705 0.000005 -18.306056 -7.145353 20.692949 -0.000005 0.000018 -9.323277 20.457065 95.871158 30.243601 -0.000007 -0.000007 16.005572 4.970365 -1.423703 24.757147 0.000003 0.000021 -0.068752 0.432394 9.032695 3.599998 2.820853 -2.676901 0.000002 0.000002 -0.000001 9.599943 0.000003 0.061554 0.000000 0.000002 -0.000002 -11.038936 0.000005 -0.000008 3.756572 20.722470 6.981539 -0.000001 45.093010 0.000001 -2.611570 0.000000 -0.000001 0.000004 38.174206 -0.000025 16.757548 6.111918 -0.720034 -0.000004 3.459915 0.000005 -0.000002 0.000003 -0.000001 -0.000003 0.000025 -13.550143 -16.361418 -0.000001 0.000001 -0.000015 -0.000008 -3.436557 -0.000000 -0.000001 0.000000 11.038932 0.000023 -0.000012 4.620283 -10.018288 -8.944147 0.000000 45.093018 -0.000009 -4.477361 0.000001 -0.000001 0.000003 38.174232 -0.000014 18.827632 -11.338547 2.330658 -0.000005 3.459915 0.000008 0.000001 -0.000005 0.000002 -0.000003 -0.000011 -13.550128 3.302204 0.000001 0.000003 -0.000018 -0.000000 -4.223777 -0.000001 0.000001 0.000001 
5.179198 -89.555664 -94.536095 87.439003 -9.364241 0.866509 0.000004 -12.793807 2.116624 13.280096 -0.364508 -1.260041 0.000005 -8.721162 1.537779 -1.591559 -0.002342 -0.292198 0.000001 -8.822035 0.771819 -5.630367 -0.273151 0.180988 -0.000001 -8.855695 -0.000005 -1.692922 0.241174 0.096317 -0.000001 -11.385922 -1.138602 3.936357 1.150806 -1.338888 -0.000000 -6.705505 -0.586656 -0.700039 3.763425 0.350120 -0.000001 -6.628860 -1.168847 4.565036 0.296948 -0.102711 -0.000002 -9.728069 -0.000008 -0.000002 0.000000 -0.000000 -0.000001 -8.132847 -5.345690 0.000007 20.207714 4.984153 -20.692945 -0.000019 -0.000001 -0.082810 -25.720247 -90.854835 -30.243589 -0.000006 0.000011 8.098350 -16.160849 2.268069 -24.757175 0.000002 -0.000003 -2.735651 11.302501 13.701663 -3.600006 2.820859 -2.676934 -0.000004 0.000009 0.000000 -9.599923 0.000016 0.061539 -0.000009 0.000000 0.000008 -0.000001 -8.132832 -5.345691 0.000003 -18.213179 -7.136825 20.692944 0.000017 0.000008 -9.158876 21.078696 95.935867 30.243607 -0.000022 0.000001 16.175666 5.523993 -1.599461 24.757128 -0.000002 0.000008 -0.023061 0.156771 8.364137 3.599989 2.820869 -2.676888 0.000000 0.000005 -0.000002 9.599951 0.000014 0.061554 0.000001 0.000003 -0.000003 -11.038933 -0.000007 0.000017 3.748474 20.762778 6.982927 0.000003 45.093006 -0.000005 -2.607459 0.000001 -0.000000 0.000001 38.174210 -0.000010 16.745585 6.111623 -0.712229 -0.000000 3.459915 0.000018 -0.000002 0.000001 -0.000001 -0.000001 0.000013 -13.550138 -16.351384 -0.000001 -0.000000 0.000001 -0.000008 -3.436562 -0.000000 -0.000003 -0.000001 11.038939 -0.000021 0.000019 4.610831 -9.945438 -8.942492 -0.000002 45.093014 0.000001 -4.488377 0.000000 -0.000000 -0.000014 38.174232 0.000021 18.833094 -11.361596 2.347753 -0.000000 3.459908 0.000031 0.000002 0.000000 -0.000000 -0.000009 0.000005 -13.550145 3.316233 0.000005 0.000002 0.000003 -0.000007 -4.223782 0.000000 0.000003 0.000001 
5.171000 -89.555855 -94.534126 87.459425 -9.406735 0.880022 -0.000002 -12.793777 2.116592 13.274217 -0.366669 -1.280865 -0.000000 -8.721177 1.537776 -1.595429 -0.002216 -0.292543 0.000005 -8.821990 0.771816 -5.623423 -0.265140 0.172973 -0.000002 -8.855698 -0.000004 -1.675984 0.237388 0.074487 0.000000 -11.385940 -1.138600 3.964064 1.155235 -1.313077 -0.000002 -6.705490 -0.586656 -0.740763 3.756715 0.338564 0.000001 -6.628856 -1.168846 4.586770 0.296141 -0.104677 0.000000 -9.728069 -0.000017 -0.000001 0.000001 0.000000 0.000003 -8.132843 -5.345681 0.000009 20.118416 4.935836 -20.692953 0.000014 -0.000001 -0.005790 -25.893879 -91.073456 -30.243591 -0.000005 -0.000009 8.120438 -16.466176 2.316077 -24.757172 -0.000008 -0.000003 -2.897815 11.819418 13.881635 -3.599980 2.820838 -2.676923 0.000002 -0.000002 0.000003 -9.599957 0.000001 0.061538 0.000002 -0.000002 0.000004 0.000001 -8.132832 -5.345682 0.000007 -18.135151 -7.124558 20.692945 0.000018 0.000015 -9.076659 21.622784 95.911675 30.243605 -0.000013 0.000002 16.308907 5.890828 -1.720077 24.757141 -0.000006 -0.000001 0.001734 -0.012798 7.787658 3.599992 2.820856 -2.676907 -0.000000 0.000000 0.000001 9.599957 0.000002 0.061554 -0.000000 0.000002 -0.000004 -11.038939 0.000022 -0.000008 3.743607 20.769615 6.960750 -0.000000 45.093021 -0.000032 -2.608063 0.000000 -0.000001 0.000002 38.174202 -0.000029 16.751655 6.144657 -0.684663 -0.000001 3.459915 -0.000022 0.000001 0.000000 -0.000001 0.000004 -0.000003 -13.550142 -16.410971 -0.000001 -0.000000 0.000004 0.000000 -3.436572 0.000000 -0.000003 -0.000001 11.038936 0.000004 -0.000004 4.590446 -9.865011 -8.960536 0.000004 45.093010 0.000005 -4.487996 0.000001 -0.000000 0.000011 38.174213 -0.000003 18.780162 -11.415583 2.424693 -0.000013 3.459916 0.000005 -0.000002 -0.000003 0.000000 0.000014 -0.000017 -13.550115 3.566901 0.000001 0.000000 0.000012 -0.000008 -4.223786 -0.000001 0.000004 -0.000001 
5.164481 -89.554703 -94.535645 87.468297 -9.446596 0.877655 0.000001 -12.793756 2.116601 13.279926 -0.369295 -1.284345 -0.000001 -8.721170 1.537779 -1.594334 -0.002524 -0.293471 -0.000001 -8.822001 0.771824 -5.619586 -0.266832 0.163932 0.000000 -8.855721 0.000007 -1.660262 0.232348 0.051687 -0.000003 -11.385907 -1.138617 3.948984 1.167261 -1.302911 0.000000 -6.705492 -0.586655 -0.713544 3.770131 0.342421 -0.000000 -6.628825 -1.168827 4.590310 0.298384 -0.108730 0.000000 -9.728100 0.000003 -0.000000 0.000000 0.000000 -0.000002 -8.132816 -5.345695 -0.000000 20.025474 4.890026 -20.692949 -0.000023 0.000009 0.175066 -25.754695 -91.162234 -30.243605 -0.000006 0.000012 9.462981 -16.861814 2.768030 -24.757160 -0.000004 0.000006 -3.057833 12.038998 14.365706 -3.600003 2.820836 -2.676910 0.000002 -0.000000 0.000004 -9.599934 -0.000006 0.061543 0.000001 -0.000000 0.000005 -0.000002 -8.132797 -5.345695 -0.000003 -18.061233 -7.102733 20.692949 0.000014 -0.000032 -9.096255 21.978688 95.834077 30.243582 -0.000009 0.000005 16.228924 5.975081 -1.735546 24.757151 -0.000007 0.000015 0.004703 -0.035831 7.490676 3.600013 2.820839 -2.676903 0.000000 -0.000003 -0.000001 9.599969 -0.000000 0.061553 -0.000000 0.000003 0.000001 -11.038937 0.000023 -0.000017 3.745394 20.773163 6.954967 -0.000004 45.093018 0.000001 -2.605844 0.000002 -0.000000 0.000006 38.174229 -0.000009 16.749096 6.190655 -0.682125 0.000012 3.459915 0.000001 0.000000 0.000000 -0.000001 0.000007 0.000016 -13.550143 -16.392531 0.000004 -0.000001 0.000002 -0.000007 -3.436568 0.000000 -0.000001 -0.000000 11.038939 0.000012 -0.000006 4.590019 -9.799463 -8.962389 0.000006 45.093018 0.000012 -4.504000 -0.000000 0.000000 0.000008 38.174217 0.000014 18.794621 -11.433402 2.451843 0.000011 3.459907 0.000016 0.000001 0.000004 -0.000002 -0.000002 -0.000001 -13.550143 3.533807 0.000003 0.000000 0.000002 0.000001 -4.223787 0.000001 -0.000001 0.000002 
